STARTFONT 2.1
COMMENT
COMMENT GENERATED BY "snftobdf 1.4"
COMMENT AUTHOR mleisher@nmsu.edu (Mark Leisher)
COMMENT DATE Tue Nov 11 13:06:12 2014
COMMENT
FONT white_shadow-48
SIZE 48 72 72
FONTBOUNDINGBOX 34 46 -2 -4
STARTPROPERTIES 9
COPYRIGHT "public domain"
POINT_SIZE 480
WEIGHT 429
RESOLUTION 99
X_HEIGHT 42
QUAD_WIDTH 18
DEFAULT_CHAR 212
FONT_ASCENT 42
FONT_DESCENT 4
ENDPROPERTIES
CHARS 87
STARTCHAR C041
ENCODING 33
SWIDTH 188 0
DWIDTH 9 0
BBX 9 46 1 -4
BITMAP
0000
0000
0000
f800
8400
be00
be00
be00
be00
be00
be00
be00
be00
be00
be00
be00
be00
be00
be00
be00
be00
be00
be00
be00
be00
be00
be00
be00
be00
be00
be00
7e00
3e00
f800
8400
be00
be00
be00
be00
be00
7e00
3e00
0000
0000
0000
0000
ENDCHAR
STARTCHAR C042
ENCODING 34
SWIDTH 313 0
DWIDTH 15 0
BBX 15 46 2 -4
BITMAP
0000
0000
0000
f780
8c40
bde0
bde0
bde0
bde0
bde0
bde0
b180
7180
3fe0
1ce0
0000
0000
0000
0000
0000
0000
0000
0000
0000
0000
0000
0000
0000
0000
0000
0000
0000
0000
0000
0000
0000
0000
0000
0000
0000
0000
0000
0000
0000
0000
0000
ENDCHAR
STARTCHAR C043
ENCODING 35
SWIDTH 334 0
DWIDTH 16 0
BBX 16 46 1 -4
BITMAP
0000
0000
0000
39c0
2520
2ff0
2f70
2f70
ef70
8f78
bffc
7ffc
3ffc
2e70
2e70
ef70
8ef8
bffc
7ffc
3ffc
2e70
2f70
1ef0
0e70
0000
0000
0000
0000
0000
0000
0000
0000
0000
0000
0000
0000
0000
0000
0000
0000
0000
0000
0000
0000
0000
0000
ENDCHAR
STARTCHAR C044
ENCODING 36
SWIDTH 376 0
DWIDTH 18 0
BBX 18 46 1 -4
BITMAP
030000
028000
02c000
0ee000
10d000
27f800
4ffc00
9ffe00
bfff00
bfff00
bfff00
bedf00
bedf00
bedf00
bedf00
bedf00
beff00
bedf00
7fc000
3fc000
1fc000
1fe000
0ff000
07f800
03fc00
03fe00
faff00
86ff00
beff00
bedf00
bedf00
bedf00
bedf00
bedf00
bedf00
bedf00
bfff00
7fff00
3fff00
1ffe00
0ffc00
07f800
02c000
01c000
00c000
000000
ENDCHAR
STARTCHAR C045
ENCODING 37
SWIDTH 585 0
DWIDTH 28 0
BBX 28 46 1 -4
BITMAP
00000000
00000000
00000000
1e00f000
21008800
4f80bc00
9fc13c00
bfe17c00
bde17800
bae27800
bae2f000
bae2f000
bae4f000
bae5e000
bae5e000
bae9e000
baebc000
baebc000
baf3c000
bae78000
bae7bc00
7de7c200
3fef1f00
1fcf3f80
0fdf7fc0
005f7bc0
009f75c0
00bd75c0
00bd75c0
013d75c0
017975c0
017975c0
027975c0
02f175c0
02f175c0
04f175c0
05e175c0
05e179c0
05e0fbc0
0bc07fc0
07c03f80
03c01f00
00000000
00000000
00000000
00000000
ENDCHAR
STARTCHAR C046
ENCODING 38
SWIDTH 418 0
DWIDTH 20 0
BBX 20 46 2 -4
BITMAP
000000
000000
000000
03f000
0c0800
11fc00
27fe00
2fff00
4fff80
5fff80
5fbf80
5f2f80
5f2f80
5f1f80
5f0f80
5f0000
3ff000
1f8800
0ffc00
0ffc00
17fc00
27fc00
4ffc00
5f8000
7ffe00
5f0100
ffff80
ffff80
ffff80
ffff80
ffff80
5f2f80
5f2f80
5f2f80
5f2f80
5f4f80
5fdf80
5fff80
2fff80
1fff00
0ffe00
03fc00
000000
000000
000000
000000
ENDCHAR
STARTCHAR C047
ENCODING 39
SWIDTH 167 0
DWIDTH 8 0
BBX 8 46 1 -4
BITMAP
00
00
00
f0
88
bc
bc
bc
bc
7c
3c
ec
8c
7c
38
00
00
00
00
00
00
00
00
00
00
00
00
00
00
00
00
00
00
00
00
00
00
00
00
00
00
00
00
00
00
00
ENDCHAR
STARTCHAR C050
ENCODING 40
SWIDTH 271 0
DWIDTH 13 0
BBX 13 46 1 -4
BITMAP
1fc0
23e0
4fe0
9fe0
9fe0
bfe0
bf00
be00
be00
be00
be00
be00
be00
be00
be00
be00
be00
be00
be00
be00
be00
be00
be00
be00
be00
be00
be00
be00
be00
be00
be00
be00
be00
be00
be00
be00
be00
be00
be00
bf80
7f40
3fe0
1fe0
1fe0
0fe0
03e0
ENDCHAR
STARTCHAR C051
ENCODING 41
SWIDTH 271 0
DWIDTH 13 0
BBX 13 46 1 -4
BITMAP
f800
be00
bf80
bfc0
7fc0
3fe0
0fe0
0be0
0be0
0be0
0be0
0be0
0be0
0be0
0be0
0be0
0be0
0be0
0be0
0be0
0be0
0be0
0be0
0be0
0be0
0be0
0be0
0be0
0be0
0be0
0be0
0be0
0be0
0be0
0be0
0be0
0be0
0be0
0be0
f3e0
87e0
bfe0
bfc0
bfc0
7f80
3e00
ENDCHAR
STARTCHAR C052
ENCODING 42
SWIDTH 334 0
DWIDTH 16 0
BBX 16 46 1 -4
BITMAP
0000
0000
0000
0600
0560
7590
5d98
5db8
eff0
97e8
7ffc
3ffc
27e0
4ff0
3db8
1b98
0180
0000
0000
0000
0000
0000
0000
0000
0000
0000
0000
0000
0000
0000
0000
0000
0000
0000
0000
0000
0000
0000
0000
0000
0000
0000
0000
0000
0000
0000
ENDCHAR
STARTCHAR C053
ENCODING 43
SWIDTH 334 0
DWIDTH 16 0
BBX 16 46 1 -4
BITMAP
0000
0000
0000
0000
0000
0000
0000
0000
0000
0000
0000
0000
0000
0000
0000
0000
0f00
0880
0bc0
0bc0
fbf0
83c8
bffc
bffc
7ffc
3ffc
0bc0
0bc0
07c0
03c0
0000
0000
0000
0000
0000
0000
0000
0000
0000
0000
0000
0000
0000
0000
0000
0000
ENDCHAR
STARTCHAR C054
ENCODING 44
SWIDTH 230 0
DWIDTH 11 0
BBX 11 46 2 -4
BITMAP
0000
0000
0000
0000
0000
0000
0000
0000
0000
0000
0000
0000
0000
0000
0000
0000
0000
0000
0000
0000
0000
0000
0000
0000
0000
0000
0000
0000
0000
0000
0000
0000
0000
0000
0000
f800
8400
be00
be00
be00
7e00
3e00
ee00
8e00
7c00
3800
ENDCHAR
STARTCHAR C055
ENCODING 45
SWIDTH 355 0
DWIDTH 17 0
BBX 17 46 1 -4
BITMAP
000000
000000
000000
000000
000000
000000
000000
000000
000000
000000
000000
000000
000000
000000
000000
000000
000000
000000
000000
000000
fff800
800400
bffe00
bffe00
7ffe00
3ffe00
000000
000000
000000
000000
000000
000000
000000
000000
000000
000000
000000
000000
000000
000000
000000
000000
000000
000000
000000
000000
ENDCHAR
STARTCHAR C056
ENCODING 46
SWIDTH 209 0
DWIDTH 10 0
BBX 10 46 1 -4
BITMAP
0000
0000
0000
0000
0000
0000
0000
0000
0000
0000
0000
0000
0000
0000
0000
0000
0000
0000
0000
0000
0000
0000
0000
0000
0000
0000
0000
0000
0000
0000
0000
0000
0000
0000
0000
f800
8400
be00
be00
be00
7e00
3e00
0000
0000
0000
0000
ENDCHAR
STARTCHAR C057
ENCODING 47
SWIDTH 334 0
DWIDTH 16 0
BBX 16 46 1 -4
BITMAP
0000
0000
0000
0070
0088
00bc
00bc
00bc
013c
017c
0178
0178
0278
02f8
02f0
02f0
04f0
05f0
05e0
05e0
09e0
0be0
0bc0
0bc0
13c0
17c0
1780
1780
2780
2f80
2f00
2f00
4f00
5f00
5e00
5e00
9e00
be00
bc00
bc00
7c00
3c00
0000
0000
0000
0000
ENDCHAR
STARTCHAR C060
ENCODING 48
SWIDTH 376 0
DWIDTH 18 0
BBX 18 46 1 -4
BITMAP
000000
000000
000000
0fe000
101000
27f800
4ffc00
9ffe00
bfff00
bf3f00
be5f00
be5f00
be5f00
be5f00
be5f00
be5f00
be5f00
be5f00
be5f00
be5f00
be5f00
be5f00
be5f00
be5f00
be5f00
be5f00
be5f00
be5f00
be5f00
be5f00
be5f00
be5f00
be5f00
be5f00
be5f00
be5f00
be9f00
7f3f00
3fff00
1ffe00
0ffc00
07f800
000000
000000
000000
000000
ENDCHAR
STARTCHAR C061
ENCODING 49
SWIDTH 292 0
DWIDTH 14 0
BBX 14 46 1 -4
BITMAP
0000
0000
0000
03c0
0420
09f0
13f0
27f0
4ff0
9ff0
bff0
bff0
7df0
3df0
05f0
05f0
05f0
05f0
05f0
05f0
05f0
05f0
05f0
05f0
05f0
05f0
05f0
05f0
05f0
05f0
05f0
05f0
05f0
05f0
05f0
05f0
05f0
05f0
05f0
05f0
03f0
01f0
0000
0000
0000
0000
ENDCHAR
STARTCHAR C062
ENCODING 50
SWIDTH 418 0
DWIDTH 20 0
BBX 20 46 1 -4
BITMAP
000000
000000
000000
07f000
080800
13fc00
27fe00
4fff00
9fff80
bfff80
bfff80
bf3f80
be5f80
be5f80
be5f80
7e9f80
3ebf80
00bf00
00bf00
013e00
017e00
027c00
02fc00
04fc00
05f800
09f800
0bf000
13f000
17f000
27e000
2fe000
4fc000
5fc000
9f8000
bf8000
bfff00
bf0080
bfffc0
bfffc0
bfffc0
7fffc0
3fffc0
000000
000000
000000
000000
ENDCHAR
STARTCHAR C063
ENCODING 51
SWIDTH 376 0
DWIDTH 18 0
BBX 18 46 1 -4
BITMAP
000000
000000
000000
0fe000
101000
27f800
4ffc00
9ffe00
bfff00
bfff00
bf3f00
be5f00
be5f00
be5f00
be5f00
7e5f00
3e9f00
0f9f00
083f00
0bff00
0bfe00
0bfc00
07fe00
03ff00
003f00
f85f00
845f00
be5f00
be5f00
be5f00
be5f00
be5f00
be5f00
be5f00
be5f00
be9f00
bf3f00
7fff00
3fff00
1ffe00
0ffc00
07f800
000000
000000
000000
000000
ENDCHAR
STARTCHAR C064
ENCODING 52
SWIDTH 418 0
DWIDTH 20 0
BBX 20 46 1 -4
BITMAP
000000
000000
000000
03f800
020400
02fe00
02fe00
04fe00
05fe00
05fe00
05fe00
09fe00
0bfe00
0bfe00
0bfe00
13fe00
17fe00
17be00
17be00
27be00
2fbe00
2fbe00
4fbe00
4fbe00
5fbe00
5fbe00
5ebe00
9fbf00
be3e80
bfffc0
bfffc0
bfffc0
7fffc0
3fffc0
00be00
00be00
00be00
00be00
00be00
00be00
007e00
003e00
000000
000000
000000
000000
ENDCHAR
STARTCHAR C065
ENCODING 53
SWIDTH 376 0
DWIDTH 18 0
BBX 18 46 1 -4
BITMAP
000000
000000
000000
fffc00
800200
bfff00
bfff00
bfff00
bfff00
bfff00
be0000
be0000
be0000
be0000
bee000
bf1000
be7800
befc00
bffe00
bfff00
bfff00
bf3f00
7e5f00
3e5f00
005f00
005f00
005f00
f85f00
845f00
be5f00
be5f00
be5f00
be5f00
be5f00
be5f00
be9f00
bf3f00
7fff00
3fff00
1ffe00
0ffc00
07f800
000000
000000
000000
000000
ENDCHAR
STARTCHAR C066
ENCODING 54
SWIDTH 376 0
DWIDTH 18 0
BBX 18 46 1 -4
BITMAP
000000
000000
000000
0fe000
101000
27f800
4ffc00
9ffe00
bfff00
bfff00
bf7f00
be5f00
be5f00
be5f00
be5f00
be3f00
be1f00
be6000
be9000
bf7800
befe00
bffe00
bfff00
bfff00
bf3f00
be5f00
be5f00
be5f00
be5f00
be5f00
be5f00
be5f00
be5f00
be5f00
be5f00
be9f00
bf3f00
7fff00
3fff00
1ffe00
0ffc00
07f800
000000
000000
000000
000000
ENDCHAR
STARTCHAR C067
ENCODING 55
SWIDTH 418 0
DWIDTH 20 0
BBX 20 46 1 -4
BITMAP
000000
000000
000000
ffff00
800080
bfffc0
bfffc0
bfffc0
7fffc0
3fffc0
0027c0
002fc0
004f80
005f80
009f00
00bf00
013e00
017e00
017c00
027c00
02fc00
02fc00
02f800
04f800
05f800
05f800
05f000
05f000
09f000
0bf000
0bf000
0be000
0be000
0be000
0be000
0be000
0be000
0be000
0be000
0be000
07e000
03e000
000000
000000
000000
000000
ENDCHAR
STARTCHAR C070
ENCODING 56
SWIDTH 376 0
DWIDTH 18 0
BBX 18 46 1 -4
BITMAP
000000
000000
000000
0fe000
101000
27f800
4ffc00
9ffe00
bfff00
bfff00
bf7f00
be5f00
be5f00
be5f00
be5f00
be5f00
be5f00
be9f00
7f3f00
3fff00
3ffe00
47f800
9ffe00
bfff00
bf7f00
be5f00
be5f00
be5f00
be5f00
be5f00
be5f00
be5f00
be5f00
be5f00
be5f00
be9f00
bf3f00
7fff00
3fff00
1ffe00
0ffc00
07f800
000000
000000
000000
000000
ENDCHAR
STARTCHAR C071
ENCODING 57
SWIDTH 376 0
DWIDTH 18 0
BBX 18 46 1 -4
BITMAP
000000
000000
000000
1ff000
200800
4ffc00
9ffe00
bfff00
bfff00
bfff00
bf7f00
be5f00
be5f00
be5f00
be5f00
be5f00
be5f00
be5f00
be5f00
be5f00
be5f00
be9f00
bf3f00
bfff00
7fff00
3fff00
1fdf00
0fdf00
f85f00
845f00
be5f00
be5f00
be5f00
be5f00
be5f00
be5f00
bfbf00
bfff00
7fff00
3fff00
1ffe00
0ffc00
000000
000000
000000
000000
ENDCHAR
STARTCHAR C072
ENCODING 58
SWIDTH 209 0
DWIDTH 10 0
BBX 10 46 1 -4
BITMAP
0000
0000
0000
0000
0000
0000
0000
0000
0000
0000
0000
0000
0000
0000
0000
f800
8400
be00
be00
be00
7e00
3e00
0000
0000
0000
0000
0000
0000
0000
0000
0000
0000
0000
0000
0000
f800
8400
be00
be00
be00
7e00
3e00
0000
0000
0000
0000
ENDCHAR
STARTCHAR C073
ENCODING 59
SWIDTH 209 0
DWIDTH 10 0
BBX 10 46 1 -4
BITMAP
0000
0000
0000
0000
0000
0000
0000
0000
0000
0000
0000
0000
0000
0000
0000
f800
8400
be00
be00
be00
7e00
3e00
0000
0000
0000
0000
0000
0000
0000
0000
0000
0000
0000
0000
0000
f800
8400
be00
be00
be00
7e00
3e00
ee00
8e00
7c00
3800
ENDCHAR
STARTCHAR C074
ENCODING 60
SWIDTH 271 0
DWIDTH 13 0
BBX 13 46 1 -4
BITMAP
0000
0000
0000
0000
0000
0000
0000
0000
0000
0000
0000
0000
0000
0040
00a0
0160
02e0
05e0
0be0
17e0
2fc0
5f80
bf00
fe00
7e00
3f00
1f80
0fc0
07e0
03e0
01e0
00e0
0060
0000
0000
0000
0000
0000
0000
0000
0000
0000
0000
0000
0000
0000
ENDCHAR
STARTCHAR C075
ENCODING 61
SWIDTH 334 0
DWIDTH 16 0
BBX 16 46 1 -4
BITMAP
0000
0000
0000
0000
0000
0000
0000
0000
0000
0000
0000
0000
0000
0000
0000
0000
0000
fff0
8008
bffc
bffc
7ffc
3ffc
fff0
8008
bffc
bffc
7ffc
3ffc
0000
0000
0000
0000
0000
0000
0000
0000
0000
0000
0000
0000
0000
0000
0000
0000
0000
ENDCHAR
STARTCHAR C076
ENCODING 62
SWIDTH 292 0
DWIDTH 14 0
BBX 14 46 1 -4
BITMAP
0000
0000
0000
0000
0000
0000
0000
0000
0000
0000
0000
0000
8000
c000
a000
b000
b800
bc00
7e00
3f00
1f80
0fc0
07e0
0bf0
13f0
27e0
4fc0
9f80
bf00
be00
bc00
b800
7000
2000
0000
0000
0000
0000
0000
0000
0000
0000
0000
0000
0000
0000
ENDCHAR
STARTCHAR C077
ENCODING 63
SWIDTH 376 0
DWIDTH 18 0
BBX 18 46 1 -4
BITMAP
000000
000000
000000
0fe000
101000
27f800
4ffc00
9ffe00
bfff00
bfff00
bf7f00
be5f00
be5f00
be5f00
be5f00
7e5f00
3e5f00
009f00
00bf00
013e00
017e00
027c00
02fc00
04f800
05f800
09f000
0bf000
0be000
0be000
0be000
0be000
07e000
03e000
0f8000
084000
0be000
0be000
0be000
0be000
0be000
07e000
03e000
000000
000000
000000
000000
ENDCHAR
STARTCHAR C100
ENCODING 64
SWIDTH 376 0
DWIDTH 18 0
BBX 18 46 1 -4
BITMAP
000000
000000
000000
000000
000000
000000
000000
000000
000000
000000
0fe000
101000
27f800
4ffc00
9c0e00
bb8f00
b44b00
b9eb00
bbfb00
b77b00
b3bb00
b27b00
b5fb00
bbbb00
bbbb00
bbbb00
bbbb00
bbbb00
bbbf00
b7fe00
b1dc00
700600
3ffb00
1c0700
0ffe00
07fc00
000000
000000
000000
000000
000000
000000
000000
000000
000000
000000
ENDCHAR
STARTCHAR C101
ENCODING 65
SWIDTH 480 0
DWIDTH 23 0
BBX 23 46 1 -4
BITMAP
000000
000000
000000
03f800
020400
02fe00
02fe00
02fe00
04fe00
04fe00
05ff00
05ff00
05ff00
09ff00
09ff00
0bff00
0bef80
0bef80
0bef80
13ef80
13ef80
17e7c0
17d7c0
17d7c0
27d7c0
27d7c0
2f8be0
2f8be0
2ffbe0
4f87e0
4fffe0
5ffff0
5ffff0
5ffff0
5ffff0
9f05f0
9f05f0
bf05f8
bf05f8
be02f8
7e01f8
3e00f8
000000
000000
000000
000000
ENDCHAR
STARTCHAR C102
ENCODING 66
SWIDTH 376 0
DWIDTH 18 0
BBX 18 46 1 -4
BITMAP
000000
000000
000000
fff000
800800
bffc00
bffe00
bfff00
bfff00
bfff00
bebf00
be5f00
be5f00
be5f00
be5f00
be5f00
be5f00
be5f00
bf9f00
be3f00
bfff00
bffe00
bffc00
bffe00
bfff00
be7f00
be5f00
be5f00
be5f00
be5f00
be5f00
be5f00
be5f00
be5f00
be5f00
bf9f00
be3f00
bfff00
bfff00
bfff00
7ffe00
3ffc00
000000
000000
000000
000000
ENDCHAR
STARTCHAR C103
ENCODING 67
SWIDTH 376 0
DWIDTH 18 0
BBX 18 46 1 -4
BITMAP
000000
000000
000000
0fe000
101000
27f800
4ffc00
9ffe00
bfff00
bfff00
bf7f00
be5f00
be5f00
be5f00
be5f00
be3f00
be1f00
be0000
be0000
be0000
be0000
be0000
be0000
be0000
be0000
be7c00
be4200
be5f00
be5f00
be5f00
be5f00
be5f00
be5f00
be5f00
be5f00
be5f00
bf7f00
7fff00
3fff00
1ffe00
0ffc00
07f800
000000
000000
000000
000000
ENDCHAR
STARTCHAR C104
ENCODING 68
SWIDTH 376 0
DWIDTH 18 0
BBX 18 46 1 -4
BITMAP
000000
000000
000000
ffe000
801000
bff800
bffc00
bffe00
bfff00
bfff00
bebf00
be5f00
be5f00
be5f00
be5f00
be5f00
be5f00
be5f00
be5f00
be5f00
be5f00
be5f00
be5f00
be5f00
be5f00
be5f00
be5f00
be5f00
be5f00
be5f00
be5f00
be5f00
be5f00
be5f00
bedf00
bf9f00
be3f00
bfff00
bffe00
bffe00
7ffc00
3ff000
000000
000000
000000
000000
ENDCHAR
STARTCHAR C105
ENCODING 69
SWIDTH 355 0
DWIDTH 17 0
BBX 17 46 1 -4
BITMAP
000000
000000
000000
fff800
800400
bffe00
bffe00
bffe00
bffe00
bffe00
be0000
be0000
be0000
be0000
be0000
be0000
be0000
be0000
bff000
be0800
bffc00
bffc00
bffc00
bffc00
bffc00
be0000
be0000
be0000
be0000
be0000
be0000
be0000
be0000
be0000
be0000
bff800
be0400
bffe00
bffe00
bffe00
7ffe00
3ffe00
000000
000000
000000
000000
ENDCHAR
STARTCHAR C106
ENCODING 70
SWIDTH 355 0
DWIDTH 17 0
BBX 17 46 1 -4
BITMAP
000000
000000
000000
fff800
800400
bffe00
bffe00
bffe00
bffe00
bffe00
be0000
be0000
be0000
be0000
be0000
be0000
be0000
be0000
bff000
be0800
bffc00
bffc00
bffc00
bffc00
bffc00
be0000
be0000
be0000
be0000
be0000
be0000
be0000
be0000
be0000
be0000
be0000
be0000
be0000
be0000
be0000
7e0000
3e0000
000000
000000
000000
000000
ENDCHAR
STARTCHAR C107
ENCODING 71
SWIDTH 376 0
DWIDTH 18 0
BBX 18 46 1 -4
BITMAP
000000
000000
000000
0fe000
101000
27f800
4ffc00
9ffe00
bfff00
bfff00
bf3f00
be1f00
be1f00
be1f00
be1f00
be1f00
be1f00
be0000
bffc00
bf8200
bf7f00
bf7f00
bf7f00
beff00
be7f00
be5f00
be5f00
be5f00
be5f00
be5f00
be5f00
be5f00
be5f00
be5f00
be5f00
be5f00
bf7f00
7fff00
3fff00
1fff00
0fef00
07ff00
000000
000000
000000
000000
ENDCHAR
STARTCHAR C110
ENCODING 72
SWIDTH 376 0
DWIDTH 18 0
BBX 18 46 1 -4
BITMAP
000000
000000
000000
f87c00
844200
be5f00
be5f00
be5f00
be5f00
be5f00
be5f00
be5f00
be5f00
be5f00
be5f00
be5f00
be5f00
be5f00
bfdf00
be1f00
bfff00
bfff00
bfff00
bfff00
bfff00
be5f00
be5f00
be5f00
be5f00
be5f00
be5f00
be5f00
be5f00
be5f00
be5f00
be5f00
be5f00
be5f00
be5f00
be5f00
7e3f00
3e1f00
000000
000000
000000
000000
ENDCHAR
STARTCHAR C111
ENCODING 73
SWIDTH 188 0
DWIDTH 9 0
BBX 9 46 1 -4
BITMAP
0000
0000
0000
f800
8400
be00
be00
be00
be00
be00
be00
be00
be00
be00
be00
be00
be00
be00
be00
be00
be00
be00
be00
be00
be00
be00
be00
be00
be00
be00
be00
be00
be00
be00
be00
be00
be00
be00
be00
be00
be00
7e00
0000
0000
0000
0000
ENDCHAR
STARTCHAR C112
ENCODING 74
SWIDTH 376 0
DWIDTH 18 0
BBX 18 46 1 -4
BITMAP
000000
000000
000000
007c00
004200
005f00
005f00
005f00
005f00
005f00
005f00
005f00
005f00
005f00
005f00
005f00
005f00
005f00
005f00
005f00
005f00
005f00
005f00
005f00
005f00
f85f00
845f00
be5f00
be5f00
be5f00
be5f00
be5f00
be5f00
be5f00
be5f00
be5f00
bf7f00
7fff00
3fff00
1ffe00
0ffc00
07f800
000000
000000
000000
000000
ENDCHAR
STARTCHAR C113
ENCODING 75
SWIDTH 418 0
DWIDTH 20 0
BBX 20 46 1 -4
BITMAP
000000
000000
000000
f87e00
844100
be5f80
be5f80
be9f80
be9f00
bebf00
bebf00
bf3e00
bf3e00
bf7e00
bf7c00
be7c00
befc00
bef800
bef800
bef800
bff000
bff000
bff800
bff800
bff800
bffc00
befc00
befc00
befc00
be7e00
bf7e00
bf7e00
bf3e00
bf3f00
bebf00
bebf00
be9f80
be9f80
be5f80
be4f80
7e2fc0
3e1fc0
000000
000000
000000
000000
ENDCHAR
STARTCHAR C114
ENCODING 76
SWIDTH 376 0
DWIDTH 18 0
BBX 18 46 1 -4
BITMAP
000000
000000
000000
f80000
840000
be0000
be0000
be0000
be0000
be0000
be0000
be0000
be0000
be0000
be0000
be0000
be0000
be0000
be0000
be0000
be0000
be0000
be0000
be0000
be0000
be0000
be0000
be0000
be0000
be0000
be0000
be0000
be0000
be0000
be0000
bff800
be0400
bfff00
bfff00
bfff00
7fff00
3fff00
000000
000000
000000
000000
ENDCHAR
STARTCHAR C115
ENCODING 77
SWIDTH 564 0
DWIDTH 27 0
BBX 27 46 1 -4
BITMAP
00000000
00000000
00000000
fe00fe00
81008100
bf80bf80
bf80bf80
bf80bf80
bf813f80
bf813f80
bfc17f80
bfc17f80
bfc17f80
bfc17f80
bfc27f80
bfc27f80
bfe2ff80
bfe2ff80
bfe2ff80
bfe2ff80
bfe4ff80
bff5ff80
bff5ff80
bff5ff80
bef5ef80
bef5ef80
bef9ef80
befbef80
befbef80
bf7bef80
bf7bef80
bf7bef80
bf7bef80
bebfaf80
bebfaf80
bebfaf80
bebfaf80
be7faf80
be5f2f80
be5f2f80
7e3f1f80
3e1f0f80
00000000
00000000
00000000
00000000
ENDCHAR
STARTCHAR C116
ENCODING 78
SWIDTH 418 0
DWIDTH 20 0
BBX 20 46 1 -4
BITMAP
000000
000000
000000
f81f00
841080
bf17c0
bf17c0
bf17c0
bf97c0
bf97c0
bf97c0
bfd7c0
bfd7c0
bfd7c0
bfd7c0
bff7c0
bff7c0
bff7c0
bff7c0
bff7c0
bff7c0
bef7c0
beffc0
beffc0
beffc0
bf7fc0
bf7fc0
bf7fc0
bf7fc0
bebfc0
bebfc0
bebfc0
be5fc0
be5fc0
be5fc0
be2fc0
be2fc0
be2fc0
be2fc0
be17c0
7e0fc0
3e07c0
000000
000000
000000
000000
ENDCHAR
STARTCHAR C117
ENCODING 79
SWIDTH 376 0
DWIDTH 18 0
BBX 18 46 1 -4
BITMAP
000000
000000
000000
0fe000
101000
27f800
4ffc00
9ffe00
bfff00
bfff00
bf7f00
be5f00
be5f00
be5f00
be5f00
be5f00
be5f00
be5f00
be5f00
be5f00
be5f00
be5f00
be5f00
be5f00
be5f00
be5f00
be5f00
be5f00
be5f00
be5f00
be5f00
be5f00
be5f00
be5f00
be5f00
bf9f00
7f3f00
3fff00
3fff00
1ffe00
0ffc00
07f800
000000
000000
000000
000000
ENDCHAR
STARTCHAR C120
ENCODING 80
SWIDTH 376 0
DWIDTH 18 0
BBX 18 46 1 -4
BITMAP
000000
000000
000000
ffe000
801000
bff800
bffc00
bffe00
bfff00
bfff00
be7f00
be5f00
be5f00
be5f00
be5f00
be5f00
be5f00
be5f00
be5f00
be5f00
bedf00
bf9f00
be3f00
bfff00
bffe00
bffc00
bff800
be0000
be0000
be0000
be0000
be0000
be0000
be0000
be0000
be0000
be0000
be0000
be0000
be0000
7e0000
3e0000
000000
000000
000000
000000
ENDCHAR
STARTCHAR C121
ENCODING 81
SWIDTH 376 0
DWIDTH 18 0
BBX 18 46 1 -4
BITMAP
000000
000000
000000
0fe000
101000
27f800
4ffc00
9ffe00
bfff00
bfff00
bf7f00
be5f00
be5f00
be5f00
be5f00
be5f00
be5f00
be5f00
be5f00
be5f00
be5f00
be5f00
be5f00
be5f00
be5f00
be5f00
be5f00
be5f00
be5f00
be5f00
be5f00
be5f00
be5f00
be5f00
be5f00
be9f00
bf3f00
7fff00
3fff00
1ffe00
0ffc00
07fe00
00bf00
005e00
003c00
000000
ENDCHAR
STARTCHAR C122
ENCODING 82
SWIDTH 376 0
DWIDTH 18 0
BBX 18 46 1 -4
BITMAP
000000
000000
000000
ffe000
801000
bff800
bffc00
bffe00
bfff00
bfff00
be7f00
be5f00
be5f00
be5f00
be5f00
be5f00
be5f00
be5f00
be5f00
be5f00
bf9f00
be3f00
bffe00
bffc00
bffe00
bfff00
bfff00
be7f00
be5f00
be5f00
be5f00
be5f00
be5f00
be5f00
be5f00
be5f00
be5f00
be5f00
be5f00
be5f00
7e3f00
3e1f00
000000
000000
000000
000000
ENDCHAR
STARTCHAR C123
ENCODING 83
SWIDTH 376 0
DWIDTH 18 0
BBX 18 46 1 -4
BITMAP
000000
000000
000000
0fe000
101000
27f800
4ffc00
9ffe00
bfff00
bfff00
bf7f00
be5f00
be5f00
be5f00
be5f00
be5f00
be3f00
be1f00
bf0000
bf8000
5fc000
5fe000
2ff000
17f800
0bfc00
05fe00
fafe00
857f00
bebf00
bebf00
be5f00
be5f00
be5f00
be5f00
be5f00
bf9f00
bf3f00
7fff00
3fff00
1ffe00
0ffc00
07f800
000000
000000
000000
000000
ENDCHAR
STARTCHAR C124
ENCODING 84
SWIDTH 355 0
DWIDTH 17 0
BBX 17 46 1 -4
BITMAP
000000
000000
000000
fff800
800400
bffe00
bffe00
bffe00
7ffe00
3ffe00
0be000
0be000
0be000
0be000
0be000
0be000
0be000
0be000
0be000
0be000
0be000
0be000
0be000
0be000
0be000
0be000
0be000
0be000
0be000
0be000
0be000
0be000
0be000
0be000
0be000
0be000
0be000
0be000
0be000
0be000
07e000
03e000
000000
000000
000000
000000
ENDCHAR
STARTCHAR C125
ENCODING 85
SWIDTH 376 0
DWIDTH 18 0
BBX 18 46 1 -4
BITMAP
000000
000000
000000
f87c00
844200
be5f00
be5f00
be5f00
be5f00
be5f00
be5f00
be5f00
be5f00
be5f00
be5f00
be5f00
be5f00
be5f00
be5f00
be5f00
be5f00
be5f00
be5f00
be5f00
be5f00
be5f00
be5f00
be5f00
be5f00
be5f00
be5f00
be5f00
be5f00
be5f00
be5f00
be5f00
7f7f00
3fff00
3fff00
1ffe00
0ffc00
07f800
000000
000000
000000
000000
ENDCHAR
STARTCHAR C126
ENCODING 86
SWIDTH 480 0
DWIDTH 23 0
BBX 23 46 1 -4
BITMAP
000000
000000
000000
fc07e0
820410
bf05f8
bf05f8
bf05f8
9f05f0
5f05f0
5f05f0
5f09f0
5f8bf0
4f8be0
2f8be0
2f8be0
2f8be0
2f93e0
2fd7e0
27d7c0
17d7c0
17d7c0
17d7c0
17e7c0
17efc0
13ef80
0bef80
0bef80
0bef80
0bef80
0bef80
09ff00
05ff00
05ff00
05ff00
05ff00
05ff00
04fe00
02fe00
02fe00
01fe00
00fe00
000000
000000
000000
000000
ENDCHAR
STARTCHAR C127
ENCODING 87
SWIDTH 606 0
DWIDTH 29 0
BBX 29 46 1 -4
BITMAP
00000000
00000000
00000000
f83e0f80
84210840
be2f8be0
be2f8be0
be2f8be0
be2f8be0
be2f93e0
9f2f97c0
5f2f97c0
5f4f97c0
5fdfd7c0
5fdfd7c0
5fdfd7c0
5fdfd7c0
4fdfe780
2f9fef80
2f9fef80
2fbfef80
2fbfef80
2fbfef80
2fbdef80
27bdef00
17bdef00
17fdff00
17fdff00
17fdff00
17fdff00
17fdff00
13fcfe00
0bfafe00
0bfafe00
0bfafe00
0bfafe00
0bfafe00
0bf27c00
09f17c00
05f17c00
03f0fc00
01f07c00
00000000
00000000
00000000
00000000
ENDCHAR
STARTCHAR C130
ENCODING 88
SWIDTH 418 0
DWIDTH 20 0
BBX 20 46 0 -4
BITMAP
000000
000000
000000
7c1f00
421080
5f17c0
5f17c0
5f17c0
5f2780
4faf80
2faf80
2faf80
27cf00
17df00
17df00
17df00
13fe00
0bfe00
0bfe00
09fc00
05fc00
05fc00
05fc00
09fc00
0bfe00
0bfe00
13fe00
17ff00
17df00
17df00
27df00
2fdf80
2faf80
2faf80
4faf80
5fafc0
5f27c0
5f17c0
9f17c0
be0be0
7e07e0
3e03e0
000000
000000
000000
000000
ENDCHAR
STARTCHAR C131
ENCODING 89
SWIDTH 397 0
DWIDTH 19 0
BBX 19 46 1 -4
BITMAP
000000
000000
000000
f83e00
842100
be2f80
be2f80
be2f80
be2f80
9e4f00
5f5f00
5f5f00
5f5f00
4f5e00
2f9e00
2fbe00
2fbe00
27bc00
17bc00
17fc00
17fc00
17fc00
13f800
0bf800
0bf800
0bf800
09f000
05f000
05f000
05f000
05f000
05f000
05f000
05f000
05f000
05f000
05f000
05f000
05f000
05f000
03f000
01f000
000000
000000
000000
000000
ENDCHAR
STARTCHAR C132
ENCODING 90
SWIDTH 397 0
DWIDTH 19 0
BBX 19 46 1 -4
BITMAP
000000
000000
000000
7ffe00
400100
5fff80
5fff80
5fff80
3fff80
1fff80
005f00
009f00
00bf00
00be00
013e00
017e00
017c00
017c00
027c00
02f800
04f800
04f800
05f000
05f000
09f000
0bf000
0be000
0be000
13e000
17c000
17c000
27c000
2fc000
4f8000
5f8000
5ffe00
9f0100
bfff80
bfff80
bfff80
7fff80
3fff80
000000
000000
000000
000000
ENDCHAR
STARTCHAR C137
ENCODING 95
SWIDTH 376 0
DWIDTH 18 0
BBX 18 46 0 -4
BITMAP
000000
000000
000000
000000
000000
000000
000000
000000
000000
000000
000000
000000
000000
000000
000000
000000
000000
000000
000000
000000
000000
000000
000000
000000
000000
000000
000000
000000
000000
000000
000000
000000
000000
000000
000000
000000
000000
000000
000000
000000
000000
ffff00
800080
bfffc0
7fffc0
3fffc0
ENDCHAR
STARTCHAR C141
ENCODING 97
SWIDTH 355 0
DWIDTH 17 0
BBX 17 46 1 -4
BITMAP
000000
000000
000000
000000
000000
000000
000000
000000
1fe000
201000
4ff800
9ffc00
bffe00
bf7e00
bebe00
bebe00
bebe00
bebe00
7ebe00
3f3e00
067e00
19fe00
27fe00
4ffe00
9fbe00
bfbe00
bebe00
bebe00
bebe00
bebe00
bebe00
bebe00
bebe00
bebe00
bebe00
bebe00
bebe00
bf3e00
7f7e00
3ffe00
1fde00
0f9e00
000000
000000
000000
000000
ENDCHAR
STARTCHAR C142
ENCODING 98
SWIDTH 355 0
DWIDTH 17 0
BBX 17 46 1 -4
BITMAP
000000
000000
000000
f80000
840000
be0000
be0000
be0000
bee000
bf1000
be7800
befc00
bffe00
bffe00
bf7e00
bebe00
bebe00
bebe00
bebe00
bebe00
bebe00
bebe00
bebe00
bebe00
bebe00
bebe00
bebe00
bebe00
bebe00
bebe00
bebe00
bebe00
bebe00
bebe00
bebe00
bebe00
bebe00
bfbe00
bf7e00
bffe00
7dfc00
3cf800
000000
000000
000000
000000
ENDCHAR
STARTCHAR C143
ENCODING 99
SWIDTH 355 0
DWIDTH 17 0
BBX 17 46 1 -4
BITMAP
000000
000000
000000
000000
000000
000000
000000
000000
1fe000
201000
4ff800
9ffc00
bffe00
bf7e00
bebe00
bebe00
bebe00
bebe00
bebe00
be7e00
be3e00
be0000
be0000
be0000
be0000
be0000
be0000
bef800
be8400
bebe00
bebe00
bebe00
bebe00
bebe00
bebe00
bebe00
bebe00
bebe00
7f7e00
3ffe00
1ffc00
0ff800
000000
000000
000000
000000
ENDCHAR
STARTCHAR C144
ENCODING 100
SWIDTH 355 0
DWIDTH 17 0
BBX 17 46 1 -4
BITMAP
000000
000000
000000
00f800
008400
00be00
00be00
00be00
3cbe00
42be00
8fbe00
9fbe00
bffe00
bffe00
bf7e00
bebe00
bebe00
bebe00
bebe00
bebe00
bebe00
bebe00
bebe00
bebe00
bebe00
bebe00
bebe00
bebe00
bebe00
bebe00
bebe00
bebe00
bebe00
bebe00
bebe00
bebe00
bebe00
7f3e00
3ffe00
3ffe00
1fde00
0f9e00
000000
000000
000000
000000
ENDCHAR
STARTCHAR C145
ENCODING 101
SWIDTH 355 0
DWIDTH 17 0
BBX 17 46 1 -4
BITMAP
000000
000000
000000
000000
000000
000000
000000
000000
1fe000
201000
4ff800
9ffc00
bffe00
bf7e00
bebe00
bebe00
bebe00
bebe00
bebe00
bebe00
bebe00
bfbe00
be3e00
bffe00
bffe00
bffe00
be0000
bef800
be8400
bebe00
bebe00
bebe00
bebe00
bebe00
bebe00
bebe00
bebe00
7f3e00
3f7e00
3ffe00
1ffc00
0ff800
000000
000000
000000
000000
ENDCHAR
STARTCHAR C146
ENCODING 102
SWIDTH 271 0
DWIDTH 13 0
BBX 13 46 1 -4
BITMAP
0000
0000
0000
0780
0840
13e0
27e0
2fe0
efc0
8f80
bfe0
bfe0
7fe0
3fe0
2f80
2f80
2f80
2f80
2f80
2f80
2f80
2f80
2f80
2f80
2f80
2f80
2f80
2f80
2f80
2f80
2f80
2f80
2f80
2f80
2f80
2f80
2f80
2f80
2f80
2f80
1f80
0f80
0000
0000
0000
0000
ENDCHAR
STARTCHAR C147
ENCODING 103
SWIDTH 355 0
DWIDTH 17 0
BBX 17 46 1 -4
BITMAP
000000
000000
000000
000000
000000
000000
000000
000000
1cf800
228400
4dbe00
9fbe00
bffe00
bffe00
bf7e00
bebe00
bebe00
bebe00
bebe00
bebe00
bebe00
bebe00
bebe00
bebe00
bebe00
bebe00
bebe00
bebe00
bebe00
bebe00
bebe00
bebe00
bebe00
bebe00
bf3e00
bf7e00
7ffe00
3ffe00
1fde00
efde00
905e00
7f9e00
783e00
3ffe00
1ffc00
0ff800
ENDCHAR
STARTCHAR C150
ENCODING 104
SWIDTH 355 0
DWIDTH 17 0
BBX 17 46 1 -4
BITMAP
000000
000000
000000
f80000
840000
be0000
be0000
be0000
bee000
bf1000
be7800
befc00
bffe00
bffe00
bf7e00
bebe00
bebe00
bebe00
bebe00
bebe00
bebe00
bebe00
bebe00
bebe00
bebe00
bebe00
bebe00
bebe00
bebe00
bebe00
bebe00
bebe00
bebe00
bebe00
bebe00
bebe00
bebe00
bebe00
bebe00
bebe00
7e7e00
3e3e00
000000
000000
000000
000000
ENDCHAR
STARTCHAR C151
ENCODING 105
SWIDTH 188 0
DWIDTH 9 0
BBX 9 46 1 -4
BITMAP
0000
0000
0000
fc00
8200
be00
be00
7e00
f800
8400
be00
be00
be00
be00
be00
be00
be00
be00
be00
be00
be00
be00
be00
be00
be00
be00
be00
be00
be00
be00
be00
be00
be00
be00
be00
be00
be00
be00
be00
be00
7e00
3e00
0000
0000
0000
0000
ENDCHAR
STARTCHAR C152
ENCODING 106
SWIDTH 230 0
DWIDTH 11 0
BBX 11 46 1 -4
BITMAP
0000
0000
0000
3e00
2100
2f80
2f80
1f80
3f80
2100
2f80
2f80
2f80
2f80
2f80
2f80
2f80
2f80
2f80
2f80
2f80
2f80
2f80
2f80
2f80
2f80
2f80
2f80
2f80
2f80
2f80
2f80
2f80
2f80
2f80
2f80
2f80
2f80
2f80
2f80
2f80
4f80
9f80
bf80
7f00
3e00
ENDCHAR
STARTCHAR C153
ENCODING 107
SWIDTH 418 0
DWIDTH 20 0
BBX 20 46 2 -4
BITMAP
000000
000000
000000
f80000
840000
be0000
be0000
be0000
bef800
be8400
bebe00
bf3e00
bf3e00
bf7c00
bf7c00
be7c00
be7c00
bef800
bef800
bef800
bff800
bff000
bff000
bff000
bfe000
bfe000
bff000
bff000
bff000
bff800
bef800
bef800
be7c00
bf7c00
bf7c00
bf3e00
bebe00
bebe00
be9f00
be5f00
7e3f00
3e1f00
000000
000000
000000
000000
ENDCHAR
STARTCHAR C154
ENCODING 108
SWIDTH 188 0
DWIDTH 9 0
BBX 9 46 1 -4
BITMAP
0000
0000
0000
f800
8400
be00
be00
be00
be00
be00
be00
be00
be00
be00
be00
be00
be00
be00
be00
be00
be00
be00
be00
be00
be00
be00
be00
be00
be00
be00
be00
be00
be00
be00
be00
be00
be00
be00
be00
be00
7e00
3e00
0000
0000
0000
0000
ENDCHAR
STARTCHAR C155
ENCODING 109
SWIDTH 522 0
DWIDTH 25 0
BBX 25 46 1 -4
BITMAP
00000000
00000000
00000000
00000000
00000000
00000000
00000000
00000000
f8c0e000
85211000
be727800
befdfc00
bffffe00
bffffe00
bf7f7e00
bebebe00
bebebe00
bebebe00
bebebe00
bebebe00
bebebe00
bebebe00
bebebe00
bebebe00
bebebe00
bebebe00
bebebe00
bebebe00
bebebe00
bebebe00
bebebe00
bebebe00
bebebe00
bebebe00
bebebe00
bebebe00
bebebe00
bebebe00
bebebe00
bebebe00
7e7e7e00
3e3e3e00
00000000
00000000
00000000
00000000
ENDCHAR
STARTCHAR C156
ENCODING 110
SWIDTH 355 0
DWIDTH 17 0
BBX 17 46 1 -4
BITMAP
000000
000000
000000
000000
000000
000000
000000
000000
f8e000
871000
be7800
befc00
bffe00
bffe00
bf7e00
bebe00
bebe00
bebe00
bebe00
bebe00
bebe00
bebe00
bebe00
bebe00
bebe00
bebe00
bebe00
bebe00
bebe00
bebe00
bebe00
bebe00
bebe00
bebe00
bebe00
bebe00
bebe00
bebe00
bebe00
bebe00
7e7e00
3e3e00
000000
000000
000000
000000
ENDCHAR
STARTCHAR C157
ENCODING 111
SWIDTH 355 0
DWIDTH 17 0
BBX 17 46 1 -4
BITMAP
000000
000000
000000
000000
000000
000000
000000
000000
1fe000
201000
4ff800
9ffc00
bffe00
bf7e00
bebe00
bebe00
bebe00
bebe00
bebe00
bebe00
bebe00
bebe00
bebe00
bebe00
bebe00
bebe00
bebe00
bebe00
bebe00
bebe00
bebe00
bebe00
bebe00
bebe00
bebe00
bebe00
bebe00
bf3e00
7f7e00
3ffe00
1ffc00
0ff800
000000
000000
000000
000000
ENDCHAR
STARTCHAR C160
ENCODING 112
SWIDTH 355 0
DWIDTH 17 0
BBX 17 46 1 -4
BITMAP
000000
000000
000000
000000
000000
000000
000000
000000
f8e000
851000
be7800
befc00
bffe00
bffe00
bf7e00
bebe00
bebe00
bebe00
bebe00
bebe00
bebe00
bebe00
bebe00
bebe00
bebe00
bebe00
bebe00
bebe00
bebe00
bebe00
bebe00
bebe00
bebe00
bebe00
bebe00
bebe00
bebe00
bebe00
bf7e00
bffe00
bdfc00
bcf800
bc0000
bc0000
7c0000
3c0000
ENDCHAR
STARTCHAR C161
ENCODING 113
SWIDTH 355 0
DWIDTH 17 0
BBX 17 46 1 -4
BITMAP
000000
000000
000000
000000
000000
000000
000000
000000
1cf800
228400
4f3e00
9fbe00
bffe00
bffe00
bf7e00
bebe00
bebe00
bebe00
bebe00
bebe00
bebe00
bebe00
bebe00
bebe00
bebe00
bebe00
bebe00
bebe00
bebe00
bebe00
bebe00
bebe00
bebe00
bebe00
bebe00
bebe00
bebe00
bebe00
7f7e00
3ffe00
1fde00
0f9e00
001e00
001e00
001e00
001e00
ENDCHAR
STARTCHAR C162
ENCODING 114
SWIDTH 355 0
DWIDTH 17 0
BBX 17 46 1 -4
BITMAP
000000
000000
000000
000000
000000
000000
000000
000000
f06000
889000
bf7800
befc00
bffe00
bffe00
bf7e00
bebe00
bebe00
bebe00
bebe00
be7e00
be3e00
be0000
be0000
be0000
be0000
be0000
be0000
be0000
be0000
be0000
be0000
be0000
be0000
be0000
be0000
be0000
be0000
be0000
be0000
be0000
7e0000
3e0000
000000
000000
000000
000000
ENDCHAR
STARTCHAR C163
ENCODING 115
SWIDTH 355 0
DWIDTH 17 0
BBX 17 46 1 -4
BITMAP
000000
000000
000000
000000
000000
000000
000000
000000
1fe000
201000
4ff800
9ffc00
bffe00
bf7e00
bebe00
bebe00
bebe00
bebe00
bebe00
be7e00
bf3e00
bf0000
9f8000
5fc000
2fe000
17f000
0bf800
fdfc00
86fc00
bf7e00
bf7e00
bf3e00
bebe00
bebe00
bebe00
bebe00
bebe00
bf3e00
7f7e00
3ffe00
1ffc00
0ff800
000000
000000
000000
000000
ENDCHAR
STARTCHAR C164
ENCODING 116
SWIDTH 292 0
DWIDTH 14 0
BBX 14 46 1 -4
BITMAP
0000
0000
0000
3e00
2100
2f80
2f80
2f80
ef80
8fc0
bfe0
bfe0
7fe0
3fe0
2f80
2f80
2f80
2f80
2f80
2f80
2f80
2f80
2f80
2f80
2f80
2f80
2f80
2f80
2f80
2f80
2f80
2f80
2f80
2f80
2f80
2f80
2f80
2fc0
1ff0
0ff0
07f0
03f0
0000
0000
0000
0000
ENDCHAR
STARTCHAR C165
ENCODING 117
SWIDTH 355 0
DWIDTH 17 0
BBX 17 46 1 -4
BITMAP
000000
000000
000000
000000
000000
000000
000000
000000
f8f800
848400
bebe00
bebe00
bebe00
bebe00
bebe00
bebe00
bebe00
bebe00
bebe00
bebe00
bebe00
bebe00
bebe00
bebe00
bebe00
bebe00
bebe00
bebe00
bebe00
bebe00
bebe00
bebe00
bebe00
bebe00
bebe00
bebe00
bebe00
bf3e00
7f7e00
3ffe00
1ffe00
0f9e00
000000
000000
000000
000000
ENDCHAR
STARTCHAR C166
ENCODING 118
SWIDTH 439 0
DWIDTH 21 0
BBX 21 46 1 -4
BITMAP
000000
000000
000000
000000
000000
000000
000000
000000
fc1f80
821040
bf17e0
bf17e0
bf17e0
9f17c0
5f17c0
5f17c0
5f17c0
5f27c0
5fafc0
4faf80
2faf80
2faf80
2faf80
2fcf80
2fdf80
27df00
17df00
17df00
17df00
17df00
17ff00
13fe00
0bfe00
0bfe00
0bfe00
0bfe00
0bfe00
09fc00
05fc00
05fc00
03fc00
01fc00
000000
000000
000000
000000
ENDCHAR
STARTCHAR C167
ENCODING 119
SWIDTH 648 0
DWIDTH 31 0
BBX 31 46 1 -4
BITMAP
00000000
00000000
00000000
00000000
00000000
00000000
00000000
00000000
f81f07c0
84108420
bf17c5f8
bf17c5f8
bf17c5f8
9f17c5f0
5f17c5f0
5f17c5f0
5f17c5f0
5f27c9f0
5fafebf0
4fafebe0
2fafebe0
2fafebe0
2fafebe0
2fcff3e0
2fdff7e0
27dff7c0
17dff7c0
17def7c0
17def7c0
17def7c0
17feffc0
13feff80
0bfeff80
0bfc7f80
0bfc7f80
0bfc7f80
0bfc7f80
09fc7f00
05f83f00
05f83f00
03f83f00
01f83f00
00000000
00000000
00000000
00000000
ENDCHAR
STARTCHAR C170
ENCODING 120
SWIDTH 397 0
DWIDTH 19 0
BBX 19 46 1 -4
BITMAP
000000
000000
000000
000000
000000
000000
000000
000000
f83e00
842100
be2f80
be2f80
be2f80
9e4f00
5f5f00
5f5f00
4f5e00
2fbe00
2fbe00
27bc00
17fc00
17fc00
17fc00
13f800
0bf800
0bf800
13f800
17fc00
17fc00
17fc00
27fc00
2fbe00
2fbe00
2fbe00
4fbe00
5f5f00
5f5f00
5f5f00
9f5f00
be2f80
7e1f80
3e0f80
000000
000000
000000
000000
ENDCHAR
STARTCHAR C171
ENCODING 121
SWIDTH 439 0
DWIDTH 21 0
BBX 21 46 1 -4
BITMAP
000000
000000
000000
000000
000000
000000
000000
000000
fc1f80
821040
bf17e0
bf17e0
bf17e0
9f17c0
5f17c0
5f17c0
5f17c0
5f27c0
5fafc0
4faf80
2faf80
2faf80
2faf80
2fcf80
2fdf80
27df00
17df00
17df00
17df00
17df00
17ff00
13fe00
0bfe00
0bfe00
0bfe00
0bfe00
0bfc00
09fc00
05fc00
05fc00
79f800
43f800
5ff800
5ff000
3ff000
1fc000
ENDCHAR
STARTCHAR C172
ENCODING 122
SWIDTH 376 0
DWIDTH 18 0
BBX 18 46 1 -4
BITMAP
000000
000000
000000
000000
000000
000000
000000
000000
fff800
800400
bffe00
bffe00
bffe00
7ffe00
3ffe00
017e00
027c00
02fc00
02f800
04f800
05f800
05f000
05f000
09f000
0bf000
0be000
13e000
17e000
17c000
27c000
2fc000
2f8000
2f8000
4f8000
5f8000
5ffc00
9f0200
bfff00
bfff00
bfff00
7fff00
3fff00
000000
000000
000000
000000
ENDCHAR
STARTCHAR C323
ENCODING 211
SWIDTH 271 0
DWIDTH 13 0
BBX 13 46 1 -4
BITMAP
0000
0000
0000
f780
8c40
bde0
bde0
bde0
bde0
7de0
2d60
ef60
8e60
7de0
39c0
0000
0000
0000
0000
0000
0000
0000
0000
0000
0000
0000
0000
0000
0000
0000
0000
0000
0000
0000
0000
0000
0000
0000
0000
0000
0000
0000
0000
0000
0000
0000
ENDCHAR
STARTCHAR C324
ENCODING 212
SWIDTH 313 0
DWIDTH 15 0
BBX 15 46 0 -4
BITMAP
0000
7fe0
4010
5ff8
5ffc
582c
582c
582c
5fcc
580c
3ffc
1ff8
0000
7ff0
4008
5ffc
5ffc
5800
5ff0
5ff0
5800
5800
3800
1800
0000
0000
07c0
0820
0020
0020
07c0
0800
0800
0800
0fe0
0000
0000
9cf8
a280
2280
1cf0
2208
2208
1cf0
0000
0000
ENDCHAR
ENDFONT
